<?xml version="1.0" standalone="no"?>
<!DOCTYPE svg PUBLIC "-//W3C//DTD SVG 20010904//EN"
 "http://www.w3.org/TR/2001/REC-SVG-20010904/DTD/svg10.dtd">
<svg version="1.0" xmlns="http://www.w3.org/2000/svg"
 width="1024.000000pt" height="1024.000000pt" viewBox="0 0 1024.000000 1024.000000"
 preserveAspectRatio="xMidYMid meet">

<g transform="translate(0.000000,1024.000000) scale(0.100000,-0.100000)"
fill="#000000" stroke="none">
<path d="M5033 9270 c-94 -17 -154 -50 -512 -278 -1495 -953 -2682 -1715
-2715 -1743 -22 -19 -51 -59 -65 -89 l-26 -55 -8 -688 c-5 -379 -6 -691 -3
-694 3 -3 182 107 398 244 1198 761 2116 1344 2288 1453 107 67 258 164 335
215 161 106 229 135 337 142 137 10 237 -20 373 -112 77 -52 294 -189 555
-352 69 -42 238 -149 375 -237 138 -87 358 -227 490 -311 132 -83 371 -235
530 -336 160 -102 360 -229 445 -283 85 -54 276 -174 424 -267 147 -93 270
-169 272 -169 2 0 4 283 4 629 0 673 -3 719 -51 812 -31 62 -93 124 -173 172
-39 24 -249 160 -466 302 -370 242 -1359 882 -1745 1130 -27 18 -184 121 -348
229 -164 108 -316 208 -337 221 -89 56 -260 86 -377 65z"/>
<path d="M5033 6640 c-94 -17 -154 -50 -512 -278 -1495 -953 -2682 -1715
-2715 -1743 -22 -19 -51 -59 -65 -89 l-26 -55 -8 -688 c-5 -379 -6 -691 -3
-694 3 -3 182 107 398 244 1198 761 2116 1344 2288 1453 107 67 258 164 335
215 161 106 229 135 337 142 137 10 237 -20 373 -112 77 -52 294 -189 555
-352 69 -42 238 -149 375 -237 138 -87 358 -227 490 -311 132 -83 371 -235
530 -336 160 -102 360 -229 445 -283 85 -54 276 -174 424 -267 147 -93 270
-169 272 -169 2 0 4 283 4 629 0 673 -3 719 -51 812 -31 62 -93 124 -173 172
-39 24 -249 160 -466 302 -370 242 -1359 882 -1745 1130 -27 18 -184 121 -348
229 -164 108 -316 208 -337 221 -89 56 -260 86 -377 65z"/>
<path d="M4963 3940 c-204 -29 -378 -109 -973 -453 -475 -273 -527 -305 -684
-410 -261 -174 -653 -463 -642 -474 2 -3 43 0 89 6 216 29 404 42 662 48 327
6 834 -11 950 -32 44 -9 170 -31 280 -49 110 -19 259 -49 330 -66 72 -17 182
-42 245 -56 63 -13 169 -40 235 -59 66 -19 170 -48 230 -65 266 -72 475 -151
475 -179 0 -17 -177 21 -550 118 -588 152 -870 195 -1250 189 l-195 -3 150
-73 c192 -95 406 -216 435 -247 13 -14 20 -25 16 -25 -5 0 -121 38 -260 84
-450 152 -857 229 -1106 211 -147 -10 -520 -77 -658 -117 l-44 -13 94 -110
c96 -112 334 -344 467 -455 265 -220 655 -466 1079 -681 208 -106 316 -146
485 -178 138 -27 173 -26 324 4 374 76 784 258 1608 713 126 70 739 427 782
457 l33 22 -51 73 c-297 432 -744 892 -1194 1229 -130 98 -557 380 -656 434
-227 124 -504 185 -706 157z"/>
</g>
</svg>
